<svg width="24" height="24" viewBox="0 0 24 24" fill="none" xmlns="http://www.w3.org/2000/svg">
<path fill-rule="evenodd" clip-rule="evenodd" d="M4.35938 24C4.5 24 4.64062 23.9609 4.78125 23.8828L8.25 21.9141C9.46875 22.2891 10.7188 22.4766 12 22.4766C13.6094 22.4766 15.1562 22.1875 16.6406 21.6094C18.0781 21.0312 19.3516 20.2266 20.4609 19.1953C21.5703 18.1641 22.4297 16.9766 23.0391 15.6328C23.6797 14.2422 24 12.7734 24 11.2266C24 9.71094 23.6797 8.25 23.0391 6.84375C22.4297 5.5 21.5703 4.30469 20.4609 3.25781C19.3516 2.22656 18.0781 1.42969 16.6406 0.867188C15.1719 0.289062 13.625 0 12 0C10.375 0 8.82812 0.289062 7.35938 0.867188C5.92188 1.42969 4.64844 2.22656 3.53906 3.25781C2.42969 4.30469 1.57031 5.5 0.960938 6.84375C0.320312 8.25 0 9.71094 0 11.2266C0 12.6016 0.257812 13.9258 0.773438 15.1992C1.28906 16.4727 2.02344 17.625 2.97656 18.6562L3.51562 23.25C3.5625 23.5469 3.71875 23.7656 3.98438 23.9062C4.09375 23.9688 4.21875 24 4.35938 24ZM5.03906 21.7969L4.61719 18.1641C4.60156 17.9766 4.52344 17.8125 4.38281 17.6719C3.50781 16.7969 2.83984 15.8047 2.37891 14.6953C1.91797 13.5859 1.6875 12.4297 1.6875 11.2266C1.6875 9.94531 1.95312 8.71875 2.48438 7.54688C3 6.40625 3.73438 5.39062 4.6875 4.5C5.64062 3.60938 6.73438 2.92188 7.96875 2.4375C9.25 1.9375 10.5938 1.6875 12 1.6875C13.4062 1.6875 14.75 1.9375 16.0312 2.4375C17.2656 2.9375 18.3594 3.62891 19.3125 4.51172C20.2656 5.39453 21 6.40625 21.5156 7.54688C22.0469 8.71875 22.3125 9.94922 22.3125 11.2383C22.3125 12.5273 22.0469 13.7578 21.5156 14.9297C21 16.0703 20.2656 17.0859 19.3125 17.9766C18.3594 18.8516 17.2656 19.5312 16.0312 20.0156C14.75 20.5312 13.4062 20.7891 12 20.7891C10.7656 20.7891 9.57812 20.5938 8.4375 20.2031C8.1875 20.125 7.95312 20.1484 7.73438 20.2734L5.03906 21.7969ZM7.75781 12.1641C7.50781 12.4141 7.20312 12.5391 6.84375 12.5391C6.48438 12.5391 6.17969 12.4141 5.92969 12.1641C5.67969 11.9141 5.55469 11.6094 5.55469 11.25C5.55469 10.8906 5.67969 10.5859 5.92969 10.3359C6.17969 10.0859 6.48438 9.96094 6.84375 9.96094C7.20312 9.96094 7.50781 10.0859 7.75781 10.3359C8.00781 10.5859 8.13281 10.8906 8.13281 11.25C8.13281 11.6094 8.00781 11.9141 7.75781 12.1641ZM17.1562 12.5391C17.5156 12.5391 17.8203 12.4141 18.0703 12.1641C18.3203 11.9141 18.4453 11.6094 18.4453 11.25C18.4453 10.8906 18.3203 10.5859 18.0703 10.3359C17.8203 10.0859 17.5156 9.96094 17.1562 9.96094C16.7969 9.96094 16.4922 10.0859 16.2422 10.3359C15.9922 10.5859 15.8672 10.8906 15.8672 11.25C15.8672 11.6094 15.9922 11.9141 16.2422 12.1641C16.4922 12.4141 16.7969 12.5391 17.1562 12.5391ZM12.9141 12.1641C12.6641 12.4141 12.3594 12.5391 12 12.5391C11.6406 12.5391 11.3359 12.4141 11.0859 12.1641C10.8359 11.9141 10.7109 11.6094 10.7109 11.25C10.7109 10.8906 10.8359 10.5859 11.0859 10.3359C11.3359 10.0859 11.6406 9.96094 12 9.96094C12.3594 9.96094 12.6641 10.0859 12.9141 10.3359C13.1641 10.5859 13.2891 10.8906 13.2891 11.25C13.2891 11.6094 13.1641 11.9141 12.9141 12.1641Z" fill="#686868"/>
</svg>
