<svg width="24" height="23" viewBox="0 0 24 23" fill="none" xmlns="http://www.w3.org/2000/svg">
<path fill-rule="evenodd" clip-rule="evenodd" d="M2.10786 2.64172C0.757115 4.01611 -0.00127443 5.88137 3.21935e-06 7.82602V15.174C3.21935e-06 19.2061 3.2244 22.5 7.2 22.5H24V7.82602C24 3.79391 20.7756 0.50002 16.8 0.50002H7.2C5.29072 0.496773 3.45861 1.26734 2.10786 2.64172ZM21.6 7.82602V20.0556H7.2C4.55294 20.0529 2.40661 17.8701 2.4 15.174V7.82602C2.39872 6.52968 2.90426 5.28617 3.80492 4.3702C4.70558 3.45424 5.92724 2.94121 7.2 2.94446H16.8C19.4471 2.94715 21.5934 5.12994 21.6 7.82602ZM14.4 10.2778H16.8V12.7222H14.4V10.2778ZM9.6 10.2778H7.2V12.7222H9.6V10.2778Z" fill="white"/>
</svg>
