<svg width="250" height="47" viewBox="0 0 250 47" fill="none" xmlns="http://www.w3.org/2000/svg">
<rect width="250" height="47" fill="#F2F2F2"/>
<g clip-path="url(#clip0_0:1)">
<rect width="1922" height="954" transform="translate(-1364 -57)" fill="white"/>
<circle cx="-532.5" cy="615" r="1245.5" fill="url(#paint0_linear_0:1)"/>
<g filter="url(#filter0_ddd_0:1)">
<path d="M-42 -25C-42 -42.6731 -27.6731 -57 -10 -57H558V897H-9.99999C-27.6731 897 -42 882.673 -42 865V-25Z" fill="white"/>
</g>
<path fill-rule="evenodd" clip-rule="evenodd" d="M121.004 11.6423H115.513L110.777 31.5799L106.711 11.6462H100.396L96.2912 31.5799L91.5957 11.6462H86.0693L93.5691 39.0367H99.2937L103.556 18.3908L107.78 39.0367H113.542L121.001 11.6462L121.004 11.6423ZM250 34.2603C247.391 34.4181 246.087 33.3473 246.087 30.5117V23.3263H249.759V18.7077H246.087V13.5362H240.878V18.7077H238.431V23.3263H240.879V30.4713C240.879 36.0367 244.034 39.6301 249.997 38.9962V34.2603H250ZM236.067 27.1531C236.067 21.7859 232.907 18.1938 228.131 18.1938C226.094 18.1826 224.163 19.0972 222.881 20.6798V18.7064H217.906V39.0353H223.123V27.1531C223.076 26.0852 223.474 25.0456 224.222 24.2821C224.97 23.5187 226.002 23.0998 227.07 23.1254C228.135 23.0676 229.17 23.4823 229.901 24.2587C230.631 25.0351 230.982 26.0942 230.859 27.1531V39.0353H236.076V27.1531H236.067ZM213.171 18.7064H207.963V30.5874C208.004 31.651 207.602 32.684 206.853 33.4405C206.104 34.197 205.075 34.6095 204.011 34.5798C202.955 34.6332 201.929 34.223 201.201 33.4567C200.472 32.6903 200.115 31.6443 200.222 30.5926V18.7116H195.013V30.5926C195.013 35.922 198.21 39.514 203.025 39.514C205.01 39.5478 206.906 38.6935 208.195 37.1845V39.0406H213.169V18.7051L213.171 18.7064ZM181.752 18.1938C177.408 18.0301 173.399 20.519 171.62 24.4849C169.84 28.4507 170.645 33.0998 173.655 36.2362C176.665 39.3725 181.277 40.3685 185.312 38.7535C189.348 37.1386 192 33.236 192.015 28.8891C192.105 26.1007 191.067 23.394 189.135 21.381C187.203 19.3681 184.541 18.2191 181.752 18.1938V18.1938ZM181.752 34.7337C178.99 34.7337 176.738 32.3651 176.738 28.9309C176.738 25.4158 178.99 22.9702 181.752 22.9702C184.515 22.9702 186.765 25.4158 186.765 28.9309C186.765 32.3651 184.515 34.7337 181.752 34.7337ZM169.199 30.3513H163.591C162.35 33.0121 159.697 34.7296 156.762 34.7729C152.262 34.7729 148.71 30.4321 148.71 25.2214C148.71 20.0486 152.262 15.7065 156.762 15.7065C159.687 15.7084 162.348 17.4002 163.591 20.0486H169.235C167.7 14.4803 162.531 10.7033 156.76 10.9328C149.302 10.9328 143.497 17.2078 143.497 25.2214C143.497 33.2351 149.302 39.5101 156.76 39.5101C162.511 39.6584 167.63 35.8882 169.194 30.3526L169.199 30.3513ZM140.938 30.9043H125.581C126.12 33.2748 128.237 34.95 130.668 34.9294C132.433 35.0075 134.094 34.0936 134.972 32.5608H140.539C139.354 36.7072 135.761 39.5075 130.708 39.5075C124.925 39.3644 120.312 34.6354 120.312 28.8507C120.312 23.066 124.925 18.3369 130.708 18.1938C136.708 18.1938 141.683 22.8502 140.933 30.9043H140.938ZM125.661 26.6418H135.767C135.194 24.3157 133.075 22.7049 130.68 22.7746C128.323 22.7762 126.262 24.3633 125.658 26.6418H125.661Z" fill="#000410"/>
<path fill-rule="evenodd" clip-rule="evenodd" d="M65.4067 19.0716L53.1097 31.3686L48.0659 36.4137L48.0333 36.4463L42.1405 30.5508L47.2168 25.4745L65.5502 7.13981C69.4344 3.25428 63.5663 -2.60206 59.6808 1.27043L43.0274 17.9251V17.9251L32.4064 28.5474L27.3614 33.5938L27.3301 33.6251V33.6251L24.5141 36.4411L24.4828 36.4085L19.4377 31.3634L7.142 19.0677C3.26038 15.1848 -2.60639 21.045 1.27262 24.9371L21.3498 44.9999C21.4229 45.0821 21.5011 45.1656 21.582 45.2477C22.1207 45.7944 22.7847 46.2014 23.5163 46.4334C24.6018 46.7739 25.7849 46.571 26.6949 45.8882L26.8253 45.8099L26.8788 45.7564C27.0662 45.6107 27.2443 45.4534 27.4122 45.2856L36.2815 36.4163L45.1508 45.2856C45.3189 45.4537 45.4975 45.611 45.6856 45.7564L45.7377 45.8099C45.7782 45.836 45.8199 45.8621 45.8682 45.8882C46.7777 46.571 47.9604 46.7739 49.0455 46.4334C49.7772 46.2008 50.4415 45.794 50.9811 45.2477C51.0606 45.1669 51.1402 45.0834 51.2132 44.9999L71.2761 24.9371C75.1603 21.0502 69.2935 15.1913 65.4067 19.0677V19.0716ZM12.4636 12.5996L12.5106 12.5553C9.89285 8.91497 14.6444 4.1686 18.2808 6.78243L18.3278 6.73808L27.4162 15.8291C31.3004 19.7133 25.435 25.5723 21.5468 21.692L20.0534 20.1842V20.1842L13.0336 13.1644V13.1644L12.4636 12.5996Z" fill="url(#paint1_linear_0:1)"/>
</g>
<defs>
<filter id="filter0_ddd_0:1" x="-87" y="-111" width="710" height="1062" filterUnits="userSpaceOnUse" color-interpolation-filters="sRGB">
<feFlood flood-opacity="0" result="BackgroundImageFix"/>
<feColorMatrix in="SourceAlpha" type="matrix" values="0 0 0 0 0 0 0 0 0 0 0 0 0 0 0 0 0 0 127 0" result="hardAlpha"/>
<feMorphology radius="8" operator="dilate" in="SourceAlpha" result="effect1_dropShadow_0:1"/>
<feOffset dx="9"/>
<feGaussianBlur stdDeviation="23"/>
<feColorMatrix type="matrix" values="0 0 0 0 0 0 0 0 0 0 0 0 0 0 0 0 0 0 0.05 0"/>
<feBlend mode="normal" in2="BackgroundImageFix" result="effect1_dropShadow_0:1"/>
<feColorMatrix in="SourceAlpha" type="matrix" values="0 0 0 0 0 0 0 0 0 0 0 0 0 0 0 0 0 0 127 0" result="hardAlpha"/>
<feMorphology radius="3" operator="dilate" in="SourceAlpha" result="effect2_dropShadow_0:1"/>
<feOffset dx="24"/>
<feGaussianBlur stdDeviation="19"/>
<feColorMatrix type="matrix" values="0 0 0 0 0 0 0 0 0 0 0 0 0 0 0 0 0 0 0.05 0"/>
<feBlend mode="normal" in2="effect1_dropShadow_0:1" result="effect2_dropShadow_0:1"/>
<feColorMatrix in="SourceAlpha" type="matrix" values="0 0 0 0 0 0 0 0 0 0 0 0 0 0 0 0 0 0 127 0" result="hardAlpha"/>
<feMorphology radius="7" operator="erode" in="SourceAlpha" result="effect3_dropShadow_0:1"/>
<feOffset dx="11"/>
<feGaussianBlur stdDeviation="7.5"/>
<feColorMatrix type="matrix" values="0 0 0 0 0 0 0 0 0 0 0 0 0 0 0 0 0 0 0.05 0"/>
<feBlend mode="normal" in2="effect2_dropShadow_0:1" result="effect3_dropShadow_0:1"/>
<feBlend mode="normal" in="SourceGraphic" in2="effect3_dropShadow_0:1" result="shape"/>
</filter>
<linearGradient id="paint0_linear_0:1" x1="1342.87" y1="-121.098" x2="-990.979" y2="-1545.86" gradientUnits="userSpaceOnUse">
<stop stop-color="#31BCF1"/>
<stop offset="1" stop-color="#074D99"/>
</linearGradient>
<linearGradient id="paint1_linear_0:1" x1="100.457" y1="105.379" x2="119.297" y2="-15.4917" gradientUnits="userSpaceOnUse">
<stop stop-color="#004C93"/>
<stop offset="1" stop-color="#41BEEC"/>
</linearGradient>
<clipPath id="clip0_0:1">
<rect width="1922" height="954" fill="white" transform="translate(-1364 -57)"/>
</clipPath>
</defs>
</svg>
